<svg width="22" height="18" viewBox="0 0 22 18" fill="none" xmlns="http://www.w3.org/2000/svg">
<g id="eye">
<path id="Vector" d="M1.23722 9.32151C1.16832 9.11443 1.16832 8.8906 1.23722 8.68351C2.62206 4.51702 6.55292 1.51172 11.1857 1.51172C15.8164 1.51172 19.7453 4.51403 21.1331 8.67852C21.203 8.8852 21.203 9.10885 21.1331 9.31652C19.7493 13.483 15.8184 16.4883 11.1857 16.4883C6.55491 16.4883 2.62605 13.486 1.23822 9.32151H1.23722Z" stroke="#2A2A2A" stroke-opacity="0.8" stroke-width="1.5" stroke-linecap="round" stroke-linejoin="round"/>
<path id="Vector_2" d="M14.1811 9.0002C14.1811 9.79461 13.8655 10.5565 13.3038 11.1182C12.742 11.6799 11.9802 11.9955 11.1857 11.9955C10.3913 11.9955 9.62947 11.6799 9.06774 11.1182C8.50601 10.5565 8.19043 9.79461 8.19043 9.0002C8.19043 8.20579 8.50601 7.44392 9.06774 6.88219C9.62947 6.32046 10.3913 6.00488 11.1857 6.00488C11.9802 6.00488 12.742 6.32046 13.3038 6.88219C13.8655 7.44392 14.1811 8.20579 14.1811 9.0002V9.0002Z" stroke="#2A2A2A" stroke-opacity="0.8" stroke-width="1.5" stroke-linecap="round" stroke-linejoin="round"/>
</g>
</svg>
