<svg width="17" height="22" viewBox="0 0 17 22" fill="none" xmlns="http://www.w3.org/2000/svg">
<g id="compare">
<path id="compare_2" d="M8.22927 3.85714C9.4026 3.85714 10.5655 3.90095 11.7169 3.98857C12.6291 4.05596 13.4868 4.44885 14.1336 5.09566C14.7804 5.74247 15.1733 6.60014 15.2407 7.51238C15.4159 9.83416 15.4159 12.1658 15.2407 14.4876C15.1733 15.3999 14.7804 16.2575 14.1336 16.9043C13.4868 17.5511 12.6291 17.944 11.7169 18.0114C11.5074 18.0276 11.2969 18.0419 11.0864 18.0552M8.22927 3.85714L11.0864 1M8.22927 3.85714L11.0864 6.71429M8.22927 18.1429C7.05594 18.1429 5.89308 18.099 4.74165 18.0114C3.82941 17.944 2.97174 17.5511 2.32493 16.9043C1.67812 16.2575 1.28523 15.3999 1.21784 14.4876C1.0426 12.1658 1.0426 9.83416 1.21784 7.51238C1.28523 6.60014 1.67812 5.74247 2.32493 5.09566C2.97174 4.44885 3.82941 4.05596 4.74165 3.98857C4.95118 3.97238 5.16165 3.95809 5.37213 3.94476M8.22927 18.1429L5.37213 15.2857M8.22927 18.1429L5.37213 21" stroke="#17AC8C" stroke-width="1.5" stroke-linecap="round" stroke-linejoin="round"/>
</g>
</svg>
