<svg width="11" height="14" viewBox="0 0 11 14" fill="none" xmlns="http://www.w3.org/2000/svg">
<g id="hot">
<path id="Vector" fill-rule="evenodd" clip-rule="evenodd" d="M2.12051 6.25341C1.78845 3.28096 3.52543 1.19029 6.78148 0C4.78717 2.58699 8.48123 5.38971 8.68491 8.07662C9.16234 7.2622 9.43336 6.17457 9.48701 4.72174C11.9284 8.55214 9.90449 14.8121 4.53148 13.9126C4.03817 13.8302 3.56293 13.6744 3.12958 13.4425C1.17058 12.3957 0 10.1161 0 7.93892C0 6.55125 0.593503 5.31223 1.36166 4.32781C1.46432 5.29225 1.68278 6.01168 2.12051 6.25341Z" fill="#E20919" fill-opacity="0.85"/>
<path id="Vector_2" fill-rule="evenodd" clip-rule="evenodd" d="M3.80942 10.1967C3.21181 8.61826 3.29449 6.06987 4.96823 5.17578C4.98 8.10579 7.80352 8.47837 7.27983 11.6063C7.76273 11.0481 8.00555 10.1549 8.04908 9.45048C8.8145 11.2403 8.21443 12.6731 7.12351 13.4027C3.80696 15.6201 0.950861 11.1242 2.84991 8.6596C2.90685 9.20903 3.5655 10.059 3.80942 10.1967Z" fill="url(#paint0_linear_7961_12699)" fill-opacity="0.85"/>
</g>
<defs>
<linearGradient id="paint0_linear_7961_12699" x1="4.47629" y1="7.84189" x2="4.47629" y2="13.7068" gradientUnits="userSpaceOnUse">
<stop stop-color="#FB6404"/>
<stop offset="1" stop-color="#F2BE10"/>
</linearGradient>
</defs>
</svg>
