<svg width="9" height="10" viewBox="0 0 9 10" fill="none" xmlns="http://www.w3.org/2000/svg">
<g id="Group">
<path id="Vector" d="M5.99863 2.03539C6.31962 1.6339 6.53744 1.09482 6.47999 0.543945C6.0101 0.56731 5.4367 0.853944 5.10473 1.25575C4.80665 1.59983 4.54283 2.16148 4.61161 2.68927C5.13908 2.73502 5.66606 2.42562 5.99863 2.03539Z" fill="#2A2A2A" fill-opacity="0.9"/>
<path id="Vector_2" d="M6.47389 2.79212C5.70788 2.74649 5.05658 3.22687 4.69077 3.22687C4.32476 3.22687 3.76458 2.81511 3.15871 2.82621C2.37012 2.83779 1.63841 3.28366 1.23823 3.99281C0.415144 5.41145 1.02102 7.51579 1.82143 8.67119C2.21013 9.24281 2.67857 9.8722 3.29582 9.84959C3.87902 9.82671 4.10761 9.47196 4.81651 9.47196C5.52489 9.47196 5.7308 9.84959 6.34815 9.83815C6.98836 9.8267 7.3886 9.26625 7.77729 8.69408C8.2232 8.04247 8.40574 7.41329 8.41722 7.37875C8.40574 7.36731 7.18272 6.89813 7.17138 5.49128C7.15984 4.3133 8.13159 3.75299 8.17732 3.71824C7.62856 2.90663 6.77114 2.81511 6.47389 2.79212Z" fill="#2A2A2A" fill-opacity="0.9"/>
</g>
</svg>
