<svg width="13" height="13" viewBox="0 0 13 13" fill="none" xmlns="http://www.w3.org/2000/svg">
<g id="Frame">
<path id="Vector" d="M8.37548 3.5C8.37548 3.99728 8.17793 4.47419 7.8263 4.82583C7.47467 5.17746 6.99776 5.375 6.50048 5.375C6.0032 5.375 5.52628 5.17746 5.17465 4.82583C4.82302 4.47419 4.62548 3.99728 4.62548 3.5C4.62548 3.00272 4.82302 2.52581 5.17465 2.17417C5.52628 1.82254 6.0032 1.625 6.50048 1.625C6.99776 1.625 7.47467 1.82254 7.8263 2.17417C8.17793 2.52581 8.37548 3.00272 8.37548 3.5V3.5ZM2.75098 10.559C2.76704 9.57518 3.16915 8.63708 3.87057 7.94702C4.57198 7.25696 5.51652 6.87023 6.50048 6.87023C7.48443 6.87023 8.42897 7.25696 9.13039 7.94702C9.83181 8.63708 10.2339 9.57518 10.25 10.559C9.07367 11.0984 7.79455 11.3768 6.50048 11.375C5.16248 11.375 3.89248 11.083 2.75098 10.559Z" stroke="#717171" stroke-linecap="round" stroke-linejoin="round"/>
</g>
</svg>
