<svg width="14" height="21" viewBox="0 0 14 21" fill="none" xmlns="http://www.w3.org/2000/svg">
<g id="Medal 5">
<g id="Group">
<path id="Vector" d="M12.0668 11.5469C12.052 11.4916 12.0232 11.4411 11.9832 11.4002C11.9432 11.3592 11.8933 11.3293 11.8384 11.3132C11.7835 11.2972 11.7254 11.2955 11.6696 11.3084C11.6139 11.3213 11.5624 11.3483 11.5201 11.3869C10.4477 12.4035 9.06482 13.0304 7.59345 13.1669C7.54457 13.1717 7.49737 13.1873 7.45522 13.2125C7.41307 13.2377 7.37701 13.272 7.34962 13.3127C7.32223 13.3535 7.30419 13.3998 7.29678 13.4484C7.28937 13.4969 7.29279 13.5465 7.30678 13.5936C7.8294 15.7617 8.17278 17.9691 8.33345 20.1936C8.33848 20.264 8.36573 20.3309 8.41125 20.3848C8.45678 20.4387 8.51824 20.4768 8.58678 20.4936H8.66678C8.72255 20.4935 8.77741 20.4794 8.82633 20.4526C8.87525 20.4258 8.91666 20.3872 8.94678 20.3402L10.4534 17.9269C11.4212 18.4009 12.3186 19.0066 13.1201 19.7269C13.1668 19.7662 13.2235 19.7919 13.2838 19.8012C13.3442 19.8105 13.4059 19.8031 13.4623 19.7797C13.5187 19.7563 13.5676 19.7179 13.6037 19.6686C13.6397 19.6193 13.6616 19.5611 13.6668 19.5002C13.6668 17.6802 12.6668 13.7336 12.0668 11.5469Z" fill="#17AC8C"/>
<path id="Vector_2" d="M6.40634 13.1668C4.94145 13.038 3.56166 12.4232 2.48634 11.4201C2.44407 11.3815 2.39258 11.3545 2.33683 11.3416C2.28108 11.3287 2.22295 11.3304 2.16803 11.3464C2.11311 11.3625 2.06325 11.3924 2.02326 11.4334C1.98326 11.4743 1.95448 11.5248 1.93967 11.5801C1.33301 13.7334 0.333008 17.6801 0.333008 19.5001C0.333924 19.5654 0.353968 19.6289 0.390655 19.6828C0.427342 19.7368 0.479058 19.7788 0.539391 19.8037C0.599725 19.8285 0.666024 19.8351 0.730068 19.8226C0.794111 19.8101 0.853084 19.7791 0.899674 19.7334C1.70117 19.0132 2.59859 18.4074 3.56634 17.9334L5.07301 20.3468C5.10312 20.3937 5.14454 20.4324 5.19346 20.4591C5.24238 20.4859 5.29723 20.5 5.35301 20.5001H5.43301C5.50155 20.4834 5.56301 20.4453 5.60853 20.3914C5.65406 20.3375 5.6813 20.2705 5.68634 20.2001C5.84555 17.9667 6.18894 15.7503 6.71301 13.5734C6.727 13.5264 6.73041 13.4768 6.72301 13.4282C6.7156 13.3797 6.69756 13.3334 6.67017 13.2926C6.64278 13.2518 6.60672 13.2176 6.56457 13.1924C6.52242 13.1672 6.47521 13.1516 6.42634 13.1468L6.40634 13.1668Z" fill="#17AC8C"/>
<path id="Vector_3" d="M13 6.5C13 5.31331 12.6481 4.15328 11.9888 3.16658C11.3295 2.17989 10.3925 1.41085 9.2961 0.956725C8.19975 0.5026 6.99335 0.38378 5.82946 0.615291C4.66557 0.846802 3.59648 1.41825 2.75736 2.25736C1.91825 3.09648 1.3468 4.16557 1.11529 5.32946C0.88378 6.49335 1.0026 7.69975 1.45673 8.7961C1.91085 9.89246 2.67989 10.8295 3.66658 11.4888C4.65328 12.1481 5.81331 12.5 7 12.5C8.5913 12.5 10.1174 11.8679 11.2426 10.7426C12.3679 9.61742 13 8.0913 13 6.5ZM10.8867 5.75333L8.88667 7.53333L9.66667 10.0667C9.6875 10.1322 9.68754 10.2026 9.66677 10.2682C9.64601 10.3338 9.60546 10.3914 9.55068 10.433C9.49591 10.4746 9.4296 10.4983 9.36084 10.5007C9.29209 10.5032 9.22426 10.4843 9.16667 10.4467L7 9.05333L5.12667 10.4333C5.07204 10.4724 5.00688 10.494 4.93974 10.4954C4.8726 10.4968 4.80661 10.4779 4.7504 10.4412C4.6942 10.4044 4.6504 10.3515 4.62475 10.2895C4.5991 10.2274 4.5928 10.159 4.60667 10.0933L5.16 7.54667L3.11334 5.75333C3.06326 5.71123 3.02668 5.65531 3.00816 5.59256C2.98964 5.5298 2.99 5.46299 3.00919 5.40043C3.02838 5.33788 3.06556 5.28236 3.11609 5.24079C3.16661 5.19923 3.22826 5.17345 3.29334 5.16667L5.89334 4.87334L6.68 2.71334C6.70336 2.64899 6.74596 2.59339 6.80202 2.5541C6.85808 2.51481 6.92488 2.49373 6.99333 2.49373C7.06179 2.49373 7.12859 2.51481 7.18465 2.5541C7.24071 2.59339 7.28331 2.64899 7.30667 2.71334L8.09333 4.87334L10.6933 5.16667C10.7569 5.17462 10.8169 5.20072 10.866 5.24186C10.9151 5.283 10.9514 5.33743 10.9704 5.39863C10.9893 5.45983 10.9903 5.52521 10.9731 5.58693C10.9559 5.64866 10.9212 5.70412 10.8733 5.74667L10.8867 5.75333Z" fill="#FFCC3A"/>
</g>
</g>
</svg>
