<svg width="12" height="11" viewBox="0 0 12 11" fill="none" xmlns="http://www.w3.org/2000/svg">
<g id="rating">
<path id="rating_2" d="M6.04862 0.699642C6.07172 0.640595 6.11106 0.590084 6.16163 0.554533C6.21219 0.518983 6.27171 0.5 6.3326 0.5C6.39349 0.5 6.45301 0.518983 6.50358 0.554533C6.55415 0.590084 6.59348 0.640595 6.61658 0.699642L7.77706 3.62481C7.79878 3.67955 7.83449 3.72694 7.88026 3.76178C7.92603 3.79661 7.98008 3.81754 8.03646 3.82226L11.0499 4.07523C11.3224 4.09813 11.4327 4.45469 11.2252 4.64069L8.92935 6.70222C8.88646 6.74068 8.85449 6.79076 8.83696 6.84699C8.81943 6.90323 8.81701 6.96343 8.82996 7.02101L9.53171 10.103C9.54581 10.1648 9.54212 10.2297 9.52109 10.2893C9.50006 10.3489 9.46264 10.4007 9.41355 10.438C9.36446 10.4754 9.30591 10.4967 9.2453 10.4992C9.18468 10.5017 9.12472 10.4853 9.07298 10.4521L6.49261 8.80095C6.44441 8.77016 6.38905 8.75387 6.3326 8.75387C6.27615 8.75387 6.22079 8.77016 6.17259 8.80095L3.59223 10.4527C3.54049 10.4859 3.48052 10.5023 3.41991 10.4998C3.35929 10.4972 3.30074 10.476 3.25166 10.4386C3.20257 10.4013 3.16515 10.3495 3.14412 10.2899C3.12309 10.2302 3.11939 10.1654 3.13349 10.1036L3.83525 7.02101C3.84826 6.96343 3.84587 6.90321 3.82833 6.84696C3.8108 6.79072 3.7788 6.74064 3.73585 6.70222L1.44001 4.64069C1.39404 4.59926 1.36078 4.54451 1.34441 4.48332C1.32805 4.42214 1.32932 4.35724 1.34805 4.29681C1.36679 4.23637 1.40216 4.18309 1.44971 4.14367C1.49727 4.10424 1.55488 4.08043 1.61531 4.07523L4.62874 3.82226C4.68513 3.81754 4.73918 3.79661 4.78494 3.76178C4.83071 3.72694 4.86642 3.67955 4.88814 3.62481L6.04862 0.700214V0.699642Z" fill="#F08200" stroke="#F08200" stroke-linecap="round" stroke-linejoin="round"/>
</g>
</svg>
