<svg width="14" height="14" viewBox="0 0 14 14" fill="none" xmlns="http://www.w3.org/2000/svg">
<g id="category">
<path id="Vector" d="M4.66667 1.55556V4.66667H1.55556V1.55556H4.66667ZM4.66667 0H1.55556C1.143 0 0.747335 0.163889 0.455612 0.455612C0.163889 0.747335 0 1.143 0 1.55556V4.66667C0 5.07923 0.163889 5.47489 0.455612 5.76661C0.747335 6.05833 1.143 6.22222 1.55556 6.22222H4.66667C5.07923 6.22222 5.47489 6.05833 5.76661 5.76661C6.05833 5.47489 6.22222 5.07923 6.22222 4.66667V1.55556C6.22222 1.143 6.05833 0.747335 5.76661 0.455612C5.47489 0.163889 5.07923 0 4.66667 0Z" fill="#717171"/>
<path id="Vector_2" d="M12.444 1.55556V4.66667H9.3329V1.55556H12.444ZM12.444 0H9.3329C8.92034 0 8.52468 0.163889 8.23296 0.455612C7.94123 0.747335 7.77734 1.143 7.77734 1.55556V4.66667C7.77734 5.07923 7.94123 5.47489 8.23296 5.76661C8.52468 6.05833 8.92034 6.22222 9.3329 6.22222H12.444C12.8566 6.22222 13.2522 6.05833 13.544 5.76661C13.8357 5.47489 13.9996 5.07923 13.9996 4.66667V1.55556C13.9996 1.143 13.8357 0.747335 13.544 0.455612C13.2522 0.163889 12.8566 0 12.444 0Z" fill="#717171"/>
<path id="Vector_3" d="M12.444 9.3329V12.444H9.3329V9.3329H12.444ZM12.444 7.77734H9.3329C8.92034 7.77734 8.52468 7.94123 8.23296 8.23296C7.94123 8.52468 7.77734 8.92034 7.77734 9.3329V12.444C7.77734 12.8566 7.94123 13.2522 8.23296 13.544C8.52468 13.8357 8.92034 13.9996 9.3329 13.9996H12.444C12.8566 13.9996 13.2522 13.8357 13.544 13.544C13.8357 13.2522 13.9996 12.8566 13.9996 12.444V9.3329C13.9996 8.92034 13.8357 8.52468 13.544 8.23296C13.2522 7.94123 12.8566 7.77734 12.444 7.77734Z" fill="#717171"/>
<path id="Vector_4" d="M4.66667 9.3329V12.444H1.55556V9.3329H4.66667ZM4.66667 7.77734H1.55556C1.143 7.77734 0.747335 7.94123 0.455612 8.23296C0.163889 8.52468 0 8.92034 0 9.3329V12.444C0 12.8566 0.163889 13.2522 0.455612 13.544C0.747335 13.8357 1.143 13.9996 1.55556 13.9996H4.66667C5.07923 13.9996 5.47489 13.8357 5.76661 13.544C6.05833 13.2522 6.22222 12.8566 6.22222 12.444V9.3329C6.22222 8.92034 6.05833 8.52468 5.76661 8.23296C5.47489 7.94123 5.07923 7.77734 4.66667 7.77734Z" fill="#717171"/>
</g>
</svg>
