<svg width="23" height="23" viewBox="0 0 23 23" fill="none" xmlns="http://www.w3.org/2000/svg">
<g id="chat">
<path id="chat_2" d="M7.52168 11.0651H7.0869M11.8695 11.0651H11.4347M16.2172 11.0651H15.7825M7.52168 11.0651C7.52168 11.1804 7.47587 11.291 7.39433 11.3726C7.3128 11.4541 7.20221 11.4999 7.0869 11.4999C6.97159 11.4999 6.861 11.4541 6.77946 11.3726C6.69793 11.291 6.65212 11.1804 6.65212 11.0651C6.65212 10.9498 6.69793 10.8392 6.77946 10.7577C6.861 10.6762 6.97159 10.6303 7.0869 10.6303C7.20221 10.6303 7.3128 10.6762 7.39433 10.7577C7.47587 10.8392 7.52168 10.9498 7.52168 11.0651V11.0651ZM11.8695 11.0651C11.8695 11.1804 11.8237 11.291 11.7421 11.3726C11.6606 11.4541 11.55 11.4999 11.4347 11.4999C11.3194 11.4999 11.2088 11.4541 11.1272 11.3726C11.0457 11.291 10.9999 11.1804 10.9999 11.0651C10.9999 10.9498 11.0457 10.8392 11.1272 10.7577C11.2088 10.6762 11.3194 10.6303 11.4347 10.6303C11.55 10.6303 11.6606 10.6762 11.7421 10.7577C11.8237 10.8392 11.8695 10.9498 11.8695 11.0651V11.0651ZM16.2172 11.0651C16.2172 11.1804 16.1714 11.291 16.0899 11.3726C16.0084 11.4541 15.8978 11.4999 15.7825 11.4999C15.6672 11.4999 15.5566 11.4541 15.475 11.3726C15.3935 11.291 15.3477 11.1804 15.3477 11.0651C15.3477 10.9498 15.3935 10.8392 15.475 10.7577C15.5566 10.6762 15.6672 10.6303 15.7825 10.6303C15.8978 10.6303 16.0084 10.6762 16.0899 10.7577C16.1714 10.8392 16.2172 10.9498 16.2172 11.0651V11.0651ZM21.8694 11.0651C21.8694 16.3474 17.1969 20.6302 11.4347 20.6302C10.4343 20.6315 9.43822 20.5001 8.47239 20.2395C7.11097 21.197 5.45019 21.6321 3.79418 21.465C3.61006 21.4473 3.42672 21.4221 3.24462 21.3897C3.81605 20.7162 4.20631 19.9081 4.37852 19.0419C4.48286 18.512 4.22432 17.9972 3.83707 17.6204C2.07825 15.9091 1 13.6031 1 11.0651C1 5.78286 5.67242 1.5 11.4347 1.5C17.1969 1.5 21.8694 5.78286 21.8694 11.0651Z" stroke="#2A2A2A" stroke-opacity="0.8" stroke-width="1.5" stroke-linecap="round" stroke-linejoin="round"/>
</g>
</svg>
