<svg width="16" height="20" viewBox="0 0 16 20" fill="none" xmlns="http://www.w3.org/2000/svg">
<g id="compare">
<path id="compare_2" d="M7.86347 3.57143C8.91947 3.57143 9.96604 3.61086 11.0023 3.68971C11.8233 3.75036 12.5952 4.10397 13.1774 4.6861C13.7595 5.26822 14.1131 6.04013 14.1738 6.86114C14.3314 8.95075 14.3314 11.0493 14.1738 13.1389C14.1131 13.9599 13.7595 14.7318 13.1774 15.3139C12.5952 15.896 11.8233 16.2496 11.0023 16.3103C10.8138 16.3249 10.6243 16.3377 10.4349 16.3497M7.86347 3.57143L10.4349 1M7.86347 3.57143L10.4349 6.14286M7.86347 16.4286C6.80747 16.4286 5.7609 16.3891 4.72462 16.3103C3.9036 16.2496 3.1317 15.896 2.54957 15.3139C1.96744 14.7318 1.61383 13.9599 1.55319 13.1389C1.39547 11.0493 1.39547 8.95074 1.55319 6.86114C1.61383 6.04013 1.96744 5.26822 2.54957 4.6861C3.1317 4.10397 3.9036 3.75036 4.72462 3.68971C4.91319 3.67514 5.10262 3.66228 5.29204 3.65028M7.86347 16.4286L5.29204 13.8571M7.86347 16.4286L5.29204 19" stroke="#2A2A2A" stroke-opacity="0.8" stroke-width="1.6" stroke-linecap="round" stroke-linejoin="round"/>
</g>
</svg>
