<svg width="154" height="37" viewBox="0 0 154 37" fill="none" xmlns="http://www.w3.org/2000/svg">
<g id="Group 18">
<g id="icon">
<path id="&#60;Path&#62;" d="M24.6289 19.6445C24.6467 18.2646 25.0132 16.9117 25.6944 15.7115C26.3755 14.5114 27.3492 13.503 28.5248 12.7803C27.778 11.7137 26.7927 10.836 25.6474 10.2168C24.502 9.59757 23.228 9.25396 21.9266 9.21324C19.1505 8.92185 16.4592 10.8744 15.0445 10.8744C13.6025 10.8744 11.4244 9.24217 9.07893 9.29043C7.56183 9.33944 6.0833 9.7806 4.78739 10.5709C3.49149 11.3613 2.4224 12.4738 1.6843 13.8001C-1.51299 19.3357 0.871902 27.4712 3.93463 31.9458C5.46698 34.1368 7.25786 36.5843 9.60119 36.4975C11.8943 36.4024 12.7507 35.0353 15.5186 35.0353C18.2609 35.0353 19.0644 36.4975 21.4553 36.4423C23.9159 36.4024 25.4662 34.2415 26.9447 32.0297C28.0457 30.4685 28.893 28.743 29.455 26.9172C28.0255 26.3126 26.8055 25.3005 25.9473 24.0072C25.0891 22.7139 24.6306 21.1966 24.6289 19.6445Z" fill="#2A2A2A"/>
<path id="&#60;Path&#62;_2" d="M20.1133 6.27069C21.4549 4.66013 22.1159 2.59003 21.9558 0.5C19.9061 0.71528 18.0128 1.6949 16.6531 3.24366C15.9882 4.00028 15.4791 4.8805 15.1546 5.83401C14.8302 6.78753 14.6969 7.79564 14.7623 8.80071C15.7875 8.81127 16.8017 8.58906 17.7286 8.15081C18.6555 7.71257 19.4709 7.06972 20.1133 6.27069Z" fill="#2A2A2A"/>
</g>
<g id="text">
<g id="App Store">
<path id="Vector" d="M54.5354 27.3729H47.5748L45.9033 32.1958H42.9551L49.548 14.3525H52.611L59.2039 32.1958H56.2055L54.5354 27.3729ZM48.2957 25.1475H53.8131L51.0932 17.3204H51.0171L48.2957 25.1475Z" fill="#2A2A2A"/>
<path id="Vector_2" d="M73.4424 25.6926C73.4424 29.7353 71.228 32.3326 67.8863 32.3326C67.0398 32.3759 66.198 32.1853 65.4571 31.7828C64.7163 31.3803 64.1064 30.782 63.6974 30.0566H63.6342V36.5001H60.9014V19.1873H63.5466V21.3511H63.5969C64.0247 20.6291 64.6449 20.034 65.3914 19.629C66.1378 19.224 66.9827 19.0243 67.8361 19.0512C71.215 19.0512 73.4424 21.6612 73.4424 25.6926ZM70.6335 25.6926C70.6335 23.0588 69.2405 21.3272 67.1152 21.3272C65.0272 21.3272 63.6227 23.0953 63.6227 25.6926C63.6227 28.3138 65.0272 30.0692 67.1152 30.0692C69.2405 30.0692 70.6335 28.3503 70.6335 25.6926Z" fill="#2A2A2A"/>
<path id="Vector_3" d="M88.0957 25.6926C88.0957 29.7353 85.8813 32.3326 82.5397 32.3326C81.6932 32.3758 80.8513 32.1853 80.1105 31.7828C79.3696 31.3803 78.7598 30.782 78.3507 30.0566H78.2875V36.5001H75.5547V19.1873H78.1999V21.3511H78.2501C78.678 20.6291 79.2981 20.034 80.0446 19.629C80.7911 19.224 81.636 19.0243 82.4894 19.0512C85.8684 19.0512 88.0957 21.6612 88.0957 25.6926ZM85.2868 25.6926C85.2868 23.0588 83.8938 21.3272 81.7685 21.3272C79.6805 21.3272 78.276 23.0953 78.276 25.6926C78.276 28.3138 79.6805 30.0692 81.7685 30.0692C83.8939 30.0692 85.2868 28.3503 85.2868 25.6926H85.2868Z" fill="#2A2A2A"/>
<path id="Vector_4" d="M97.7809 27.2248C97.9834 28.9943 99.7425 30.1561 102.146 30.1561C104.45 30.1561 106.107 28.9942 106.107 27.3988C106.107 26.0138 105.108 25.1845 102.741 24.6162L100.374 24.0591C97.0212 23.2677 95.4645 21.7354 95.4645 19.2489C95.4645 16.1703 98.2102 14.0557 102.109 14.0557C105.968 14.0557 108.613 16.1703 108.702 19.2489H105.943C105.778 17.4683 104.272 16.3934 102.07 16.3934C99.8688 16.3934 98.3624 17.4809 98.3624 19.0637C98.3624 20.3252 99.3246 21.0675 101.678 21.6357L103.69 22.1185C107.437 22.9842 108.993 24.4548 108.993 27.0648C108.993 30.403 106.272 32.4938 101.944 32.4938C97.8943 32.4938 95.16 30.4521 94.9834 27.2247L97.7809 27.2248Z" fill="#2A2A2A"/>
<path id="Vector_5" d="M114.89 16.1084V19.187H117.422V21.3017H114.89V28.4735C114.89 29.5876 115.397 30.1068 116.51 30.1068C116.811 30.1017 117.111 30.0811 117.409 30.045V32.147C116.909 32.2384 116.4 32.2797 115.891 32.2705C113.196 32.2705 112.145 31.2812 112.145 28.7583V21.3017H110.209V19.187H112.145V16.1084H114.89Z" fill="#2A2A2A"/>
<path id="Vector_6" d="M118.889 25.6926C118.889 21.5994 121.356 19.0273 125.203 19.0273C129.063 19.0273 131.519 21.5994 131.519 25.6926C131.519 29.797 129.076 32.3578 125.203 32.3578C121.331 32.3578 118.889 29.797 118.889 25.6926ZM128.734 25.6926C128.734 22.8848 127.417 21.2276 125.203 21.2276C122.989 21.2276 121.673 22.8974 121.673 25.6926C121.673 28.5116 122.989 30.1562 125.203 30.1562C127.417 30.1562 128.734 28.5116 128.734 25.6926H128.734Z" fill="#2A2A2A"/>
<path id="Vector_7" d="M133.772 19.1872H136.379V21.4015H136.442C136.618 20.7099 137.033 20.0988 137.616 19.6707C138.199 19.2427 138.916 19.0239 139.645 19.0511C139.959 19.05 140.274 19.0834 140.581 19.1507V21.6484C140.183 21.5297 139.768 21.4752 139.353 21.4871C138.956 21.4713 138.56 21.5397 138.193 21.6876C137.825 21.8354 137.495 22.0592 137.225 22.3435C136.954 22.6279 136.75 22.966 136.625 23.3349C136.501 23.7037 136.46 24.0943 136.505 24.4801V32.1963H133.772L133.772 19.1872Z" fill="#2A2A2A"/>
<path id="Vector_8" d="M153.181 28.3755C152.813 30.7371 150.459 32.3578 147.448 32.3578C143.575 32.3578 141.171 29.8222 141.171 25.7543C141.171 21.6738 143.588 19.0273 147.333 19.0273C151.016 19.0273 153.333 21.4998 153.333 25.4442V26.3591H143.93V26.5205C143.886 26.9992 143.947 27.4816 144.11 27.9354C144.272 28.3892 144.531 28.8042 144.869 29.1527C145.208 29.5012 145.619 29.7753 146.074 29.9568C146.53 30.1383 147.019 30.223 147.511 30.2053C148.157 30.2644 148.805 30.1183 149.359 29.7886C149.913 29.4589 150.343 28.9633 150.586 28.3755L153.181 28.3755ZM143.942 24.4928H150.599C150.623 24.0624 150.556 23.6316 150.402 23.2275C150.248 22.8234 150.011 22.4548 149.704 22.1448C149.397 21.8348 149.029 21.59 148.62 21.4259C148.212 21.2618 147.774 21.1818 147.333 21.1911C146.888 21.1885 146.447 21.272 146.035 21.4369C145.623 21.6018 145.249 21.8447 144.934 22.1517C144.618 22.4586 144.369 22.8236 144.198 23.2254C144.028 23.6272 143.941 24.058 143.942 24.4928V24.4928Z" fill="#2A2A2A"/>
</g>
<g id="Download">
<path id="Vector_9" d="M47.9535 0.922815C48.5265 0.882641 49.1014 0.967216 49.6368 1.17044C50.1722 1.37366 50.6548 1.69047 51.0498 2.098C51.4448 2.50554 51.7422 2.99365 51.9207 3.52712C52.0993 4.06059 52.1544 4.62613 52.0822 5.18295C52.0822 7.92201 50.5671 9.49648 47.9535 9.49648H44.7842V0.922815H47.9535ZM46.147 8.28398H47.8013C48.2107 8.30789 48.6204 8.2423 49.0006 8.09198C49.3808 7.94166 49.7219 7.7104 49.9991 7.41502C50.2762 7.11965 50.4825 6.7676 50.6029 6.3845C50.7233 6.0014 50.7547 5.59689 50.6949 5.20042C50.7504 4.80552 50.7158 4.40352 50.5935 4.02323C50.4713 3.64293 50.2645 3.29377 49.988 3.00074C49.7114 2.70772 49.3719 2.47809 48.9939 2.32832C48.6159 2.17854 48.2086 2.11232 47.8013 2.13441H46.147V8.28398Z" fill="#2A2A2A"/>
<path id="Vector_10" d="M53.6222 6.2575C53.5806 5.8323 53.6303 5.40329 53.7683 4.99799C53.9063 4.59269 54.1295 4.22004 54.4235 3.90395C54.7175 3.58786 55.0759 3.33531 55.4757 3.16249C55.8754 2.98966 56.3077 2.90039 56.7449 2.90039C57.182 2.90039 57.6143 2.98966 58.0141 3.16249C58.4138 3.33531 58.7722 3.58786 59.0662 3.90395C59.3603 4.22004 59.5834 4.59269 59.7214 4.99799C59.8594 5.40329 59.9092 5.8323 59.8676 6.2575C59.91 6.68313 59.8608 7.11274 59.7232 7.51869C59.5855 7.92465 59.3625 8.29798 59.0684 8.61469C58.7743 8.9314 58.4157 9.18448 58.0155 9.35767C57.6154 9.53087 57.1825 9.62034 56.7449 9.62034C56.3072 9.62034 55.8744 9.53087 55.4742 9.35767C55.0741 9.18448 54.7154 8.9314 54.4213 8.61469C54.1272 8.29798 53.9042 7.92465 53.7666 7.51869C53.629 7.11274 53.5798 6.68313 53.6222 6.2575ZM58.5234 6.2575C58.5234 4.855 57.8786 4.03482 56.747 4.03482C55.6111 4.03482 54.9721 4.855 54.9721 6.25751C54.9721 7.67125 55.6112 8.4851 56.747 8.4851C57.8786 8.48509 58.5234 7.66562 58.5234 6.2575H58.5234Z" fill="#2A2A2A"/>
<path id="Vector_11" d="M68.1688 9.49558H66.8132L65.4447 4.73028H65.3413L63.9785 9.49558H62.6358L60.8105 3.02539H62.136L63.3222 7.96253H63.4199L64.7812 3.02539H66.0349L67.3963 7.96253H67.4997L68.6801 3.02539H69.9869L68.1688 9.49558Z" fill="#2A2A2A"/>
<path id="Vector_12" d="M71.5215 3.0258H72.7795V4.05364H72.8771C73.0428 3.68448 73.3222 3.37501 73.6764 3.16838C74.0306 2.96175 74.4419 2.86824 74.8531 2.9009C75.1753 2.87723 75.4988 2.9247 75.7997 3.03979C76.1005 3.15488 76.371 3.33464 76.5912 3.56575C76.8113 3.79686 76.9753 4.07341 77.0712 4.3749C77.1671 4.67638 77.1923 4.99509 77.145 5.30739V9.49591H75.8382V5.62805C75.8382 4.58828 75.3758 4.07119 74.4094 4.07119C74.1906 4.06123 73.9723 4.09761 73.7692 4.17783C73.5662 4.25805 73.3834 4.38022 73.2332 4.53596C73.083 4.69169 72.9691 4.87732 72.8992 5.0801C72.8293 5.28289 72.8051 5.49805 72.8283 5.71083V9.49599H71.5215L71.5215 3.0258Z" fill="#2A2A2A"/>
<path id="Vector_13" d="M79.2275 0.5H80.5343V9.49596H79.2275V0.5Z" fill="#2A2A2A"/>
<path id="Vector_14" d="M82.3516 6.25762C82.3101 5.83239 82.3599 5.40336 82.4979 4.99804C82.6359 4.59272 82.8591 4.22007 83.1532 3.90397C83.4472 3.58787 83.8056 3.33532 84.2054 3.16249C84.6052 2.98967 85.0375 2.90039 85.4747 2.90039C85.9119 2.90039 86.3442 2.98967 86.744 3.16249C87.1438 3.33532 87.5022 3.58787 87.7962 3.90397C88.0903 4.22007 88.3135 4.59272 88.4515 4.99804C88.5895 5.40336 88.6393 5.83239 88.5977 6.25762C88.6401 6.68327 88.5909 7.11288 88.4532 7.51883C88.3155 7.92479 88.0925 8.29811 87.7983 8.61481C87.5042 8.93151 87.1455 9.18458 86.7454 9.35777C86.3452 9.53096 85.9124 9.62042 85.4747 9.62042C85.037 9.62042 84.6042 9.53096 84.204 9.35777C83.8038 9.18458 83.4452 8.93151 83.151 8.61481C82.8569 8.29811 82.6339 7.92479 82.4962 7.51883C82.3585 7.11288 82.3093 6.68327 82.3516 6.25762ZM87.2529 6.25762C87.2529 4.85512 86.6081 4.03494 85.4765 4.03494C84.3406 4.03494 83.7016 4.85512 83.7016 6.25763C83.7016 7.67137 84.3406 8.48522 85.4765 8.48522C86.6081 8.48521 87.2529 7.66574 87.2529 6.25762H87.2529Z" fill="#2A2A2A"/>
<path id="Vector_15" d="M89.9727 7.66568C89.9727 6.50101 90.8601 5.82958 92.4355 5.73416L94.2291 5.63313V5.07466C94.2291 4.39129 93.7667 4.00541 92.8735 4.00541C92.144 4.00541 91.6385 4.26711 91.4934 4.72456H90.2283C90.3618 3.61322 91.4317 2.90039 92.9338 2.90039C94.5939 2.90039 95.5302 3.70792 95.5302 5.07466V9.49546H94.2722V8.58619H94.1688C93.9589 8.91235 93.6642 9.17824 93.3148 9.35672C92.9654 9.5352 92.5737 9.61986 92.1799 9.60206C91.9019 9.63032 91.6209 9.60134 91.3551 9.517C91.0893 9.43265 90.8445 9.29482 90.6366 9.11238C90.4286 8.92994 90.2621 8.70694 90.1478 8.45776C90.0334 8.20859 89.9738 7.93876 89.9727 7.66568ZM94.2291 7.11281V6.57188L92.6121 6.6729C91.7002 6.73253 91.2866 7.03563 91.2866 7.60603C91.2866 8.18836 91.8036 8.52723 92.5145 8.52723C92.7228 8.54783 92.9332 8.52728 93.1332 8.4668C93.3332 8.40633 93.5187 8.30715 93.6787 8.17519C93.8386 8.04322 93.9698 7.88116 94.0644 7.69865C94.1589 7.51614 94.2149 7.31691 94.2291 7.11281Z" fill="#2A2A2A"/>
<path id="Vector_16" d="M97.248 6.25808C97.248 4.21361 98.3237 2.91845 99.9966 2.91845C100.41 2.89982 100.821 2.99667 101.181 3.19768C101.54 3.39869 101.834 3.69556 102.027 4.05359H102.125V0.5H103.432V9.49596H102.179V8.47372H102.076C101.868 8.82933 101.564 9.12251 101.197 9.32149C100.831 9.52047 100.416 9.61768 99.9967 9.60259C98.3122 9.60266 97.248 8.30747 97.248 6.25808ZM98.598 6.25808C98.598 7.63042 99.26 8.45622 100.367 8.45622C101.469 8.45622 102.149 7.61851 102.149 6.2637C102.149 4.91522 101.461 4.06557 100.367 4.06557C99.2671 4.06557 98.5979 4.89697 98.5979 6.25808H98.598Z" fill="#2A2A2A"/>
<path id="Vector_17" d="M108.838 6.2575C108.796 5.8323 108.846 5.40329 108.984 4.99799C109.122 4.59269 109.345 4.22004 109.639 3.90395C109.933 3.58786 110.292 3.33531 110.691 3.16249C111.091 2.98966 111.524 2.90039 111.961 2.90039C112.398 2.90039 112.83 2.98966 113.23 3.16249C113.63 3.33531 113.988 3.58786 114.282 3.90395C114.576 4.22004 114.799 4.59269 114.937 4.99799C115.075 5.40329 115.125 5.8323 115.083 6.2575C115.126 6.68313 115.077 7.11274 114.939 7.51869C114.801 7.92465 114.578 8.29798 114.284 8.61469C113.99 8.9314 113.631 9.18448 113.231 9.35767C112.831 9.53087 112.398 9.62034 111.961 9.62034C111.523 9.62034 111.09 9.53087 110.69 9.35767C110.29 9.18448 109.931 8.9314 109.637 8.61469C109.343 8.29798 109.12 7.92465 108.982 7.51869C108.845 7.11274 108.796 6.68313 108.838 6.2575ZM113.739 6.2575C113.739 4.855 113.094 4.03482 111.963 4.03482C110.827 4.03482 110.188 4.855 110.188 6.25751C110.188 7.67125 110.827 8.4851 111.963 8.4851C113.094 8.48509 113.739 7.66562 113.739 6.2575Z" fill="#2A2A2A"/>
<path id="Vector_18" d="M116.837 3.0258H118.095V4.05364H118.193C118.358 3.68448 118.638 3.37501 118.992 3.16838C119.346 2.96175 119.757 2.86824 120.169 2.9009C120.491 2.87723 120.814 2.9247 121.115 3.03979C121.416 3.15488 121.686 3.33464 121.907 3.56575C122.127 3.79686 122.291 4.07341 122.387 4.3749C122.483 4.67638 122.508 4.99509 122.46 5.30739V9.49591H121.154V5.62805C121.154 4.58828 120.691 4.07119 119.725 4.07119C119.506 4.06123 119.288 4.09761 119.085 4.17783C118.882 4.25805 118.699 4.38022 118.549 4.53596C118.398 4.69169 118.285 4.87732 118.215 5.0801C118.145 5.28289 118.121 5.49805 118.144 5.71083V9.49599H116.837V3.0258Z" fill="#2A2A2A"/>
<path id="Vector_19" d="M129.845 1.41504V3.05539H131.279V4.13095H129.845V7.45796C129.845 8.13571 130.131 8.43248 130.781 8.43248C130.948 8.43196 131.114 8.42212 131.279 8.40301V9.46664C131.045 9.50766 130.807 9.52948 130.569 9.53188C129.115 9.53188 128.537 9.03234 128.537 7.78489V4.13089H127.485V3.05533H128.537V1.41504H129.845Z" fill="#2A2A2A"/>
<path id="Vector_20" d="M133.064 0.5H134.36V4.06556H134.463C134.637 3.69294 134.924 3.38173 135.285 3.17432C135.647 2.96691 136.064 2.87339 136.482 2.90651C136.803 2.88947 137.123 2.94175 137.421 3.05964C137.718 3.17752 137.985 3.3581 138.203 3.58849C138.421 3.81888 138.584 4.09339 138.681 4.39246C138.777 4.69153 138.805 5.00777 138.763 5.31862V9.49598H137.455V5.63363C137.455 4.60017 136.962 4.07677 136.039 4.07677C135.814 4.05877 135.588 4.08894 135.377 4.16517C135.165 4.2414 134.973 4.36185 134.815 4.5181C134.656 4.67434 134.534 4.8626 134.457 5.06971C134.381 5.27682 134.351 5.49777 134.371 5.71711V9.49595H133.065L133.064 0.5Z" fill="#2A2A2A"/>
<path id="Vector_21" d="M146.382 7.74858C146.204 8.33991 145.82 8.85142 145.295 9.19361C144.771 9.53581 144.14 9.6869 143.513 9.62045C143.077 9.6317 142.643 9.55006 142.242 9.38118C141.842 9.21231 141.483 8.96025 141.192 8.6425C140.901 8.32475 140.684 7.94892 140.557 7.5411C140.429 7.13328 140.394 6.70324 140.454 6.28083C140.396 5.85711 140.432 5.42614 140.559 5.0171C140.686 4.60806 140.902 4.23049 141.191 3.90996C141.481 3.58943 141.837 3.33342 142.237 3.15926C142.636 2.9851 143.07 2.89685 143.507 2.9005C145.349 2.9005 146.461 4.13047 146.461 6.16223V6.60779H141.785V6.67935C141.765 6.91679 141.795 7.15578 141.875 7.38102C141.954 7.60625 142.081 7.81274 142.247 7.98726C142.413 8.16178 142.615 8.30047 142.839 8.39443C143.063 8.4884 143.305 8.53557 143.549 8.53293C143.861 8.5696 144.178 8.5146 144.458 8.37492C144.739 8.23525 144.971 8.01721 145.124 7.74853L146.382 7.74858ZM141.785 5.66341H145.13C145.146 5.44626 145.116 5.22814 145.041 5.02307C144.966 4.818 144.848 4.63052 144.695 4.47266C144.541 4.31481 144.356 4.19008 144.15 4.10649C143.944 4.0229 143.723 3.9823 143.5 3.98729C143.274 3.98451 143.05 4.02598 142.84 4.10924C142.631 4.1925 142.441 4.31587 142.281 4.47208C142.121 4.62828 141.995 4.81417 141.91 5.01878C141.825 5.22338 141.782 5.44257 141.785 5.66341H141.785Z" fill="#2A2A2A"/>
</g>
</g>
</g>
</svg>
