<svg width="87" height="37" viewBox="0 0 87 37" fill="none" xmlns="http://www.w3.org/2000/svg">
<g id="Layer_1">
<path id="Vector" d="M63.9326 8.06389V16.8636H64.8023C64.8023 14.0372 65.4088 12.0346 66.6103 10.856C67.8118 9.67737 69.8144 9.09377 72.6408 9.09377L72.6637 35.4587L70.787 35.6074C70.7756 35.6074 70.7756 35.6074 70.7756 35.6074C68.4412 35.5045 67.8919 34.692 66.4387 33.0671C64.9854 31.4421 64.2759 29.1421 64.2759 29.1421L62.5366 22.7339C62.3191 21.91 62.1361 21.2692 61.9758 20.8001C61.8156 20.3423 61.5753 19.7587 61.232 19.0493C60.8888 18.3398 60.5111 17.7791 60.1106 17.3786C59.7101 16.9781 59.1608 16.589 58.4857 16.2343C57.7991 15.8681 57.0324 15.6507 56.1856 15.5477L56.1513 15.4676V15.3875C58.1653 15.1014 59.8131 14.3462 61.1062 13.0989C62.3992 11.8516 63.0401 10.3411 63.0401 8.59027C63.0629 4.16179 59.3783 0.545772 51.986 0.545772H41.7902V1.33535L45.4177 1.57565V29.1421L45.143 29.165H44.1589L34.0776 0.5H32.9905L23.2867 28.2038L22.9434 29.1421C21.7305 32.2317 18.8811 35.5846 13.5029 35.5846C7.8042 35.5846 4.93198 31.0188 4.93198 21.8757C4.93198 12.7441 7.79275 8.17832 13.5372 8.17832C16.3408 8.17832 18.5722 8.94501 20.2543 10.4669C21.9364 11.9889 22.8175 14.083 22.8748 16.7378H23.7444V7.67483H22.8748C22.5887 8.99078 22.0852 9.66592 21.3643 9.66592C18.6637 7.98379 15.9517 7.14844 13.2053 7.14844C11.3172 7.14844 9.61221 7.45741 8.06739 8.06389C6.52257 8.67037 5.27527 9.45995 4.29116 10.4441C3.3185 11.4167 2.48315 12.5725 1.80801 13.8999C1.13287 15.2158 0.675143 16.5432 0.400509 17.8821C0.137317 19.2209 0 20.5598 0 21.9215C0 23.3061 0.125874 24.6678 0.366179 25.9838C0.606485 27.2997 1.04132 28.6271 1.67069 29.9431C2.30006 31.2591 3.08964 32.4263 4.0623 33.4104C5.03497 34.4059 6.31659 35.1955 7.89574 35.802C8.75397 36.1224 9.64654 36.3512 10.5963 36.5H15.5512H68.979H69.2193H81.0401V35.7448L77.3897 35.4587V9.09377C80.2162 9.09377 82.2416 9.67737 83.466 10.8331C84.679 11.9889 85.2969 14.0029 85.2969 16.8636H86.1666V8.06389H63.9326ZM31.5257 8.55594C32.7502 11.8744 34.0776 15.5477 35.5079 19.5299H27.555L31.5257 8.55594ZM24.0992 29.1421L27.2003 20.5598H35.897L39.021 29.1421H24.0992ZM50.0865 1.09504H51.288C55.9797 1.09504 58.3369 4.83694 58.3369 8.57883C58.3369 10.4898 57.6275 12.0461 56.22 13.2362C54.8125 14.4263 53.1532 15.0327 51.2651 15.0327H50.0636L50.0865 1.09504ZM50.3725 29.1421L50.0865 29.1192V16.0969C52.6383 16.0969 54.4921 16.6805 55.6249 17.8477C56.7578 19.0149 57.5588 20.6513 58.0165 22.7225L58.0051 22.7339L59.424 29.1421H50.3725Z" fill="#2A2A2A" fill-opacity="0.9"/>
</g>
</svg>
