<svg width="39" height="4" viewBox="0 0 39 4" fill="none" xmlns="http://www.w3.org/2000/svg">
<g id="Layer_1">
<path id="Vector" d="M1.58679 0.292969C1.10618 0.292969 0.739997 0.453173 0.476806 0.785023C0.236501 1.08254 0.12207 1.46017 0.12207 1.91789C0.12207 2.37561 0.2365 2.75324 0.465363 3.03931C0.728554 3.35972 1.09473 3.51992 1.57535 3.51992C1.90719 3.51992 2.19327 3.42838 2.43358 3.23385C2.68533 3.03931 2.84553 2.75324 2.92563 2.38706H2.58234C2.52512 2.66169 2.39925 2.85622 2.21616 3.00498C2.04451 3.13086 1.83853 3.19952 1.58679 3.19952C1.22061 3.19952 0.945973 3.07364 0.75144 2.83334C0.56835 2.60448 0.476806 2.29551 0.476806 1.90645C0.476806 1.51738 0.56835 1.20842 0.75144 0.979556C0.945973 0.727807 1.22061 0.601933 1.58679 0.601933C1.82709 0.601933 2.03307 0.659148 2.20471 0.773579C2.37636 0.899453 2.49079 1.0711 2.53657 1.29996H2.87986C2.83409 0.990997 2.69677 0.739249 2.45646 0.55616C2.2276 0.384513 1.93008 0.292969 1.58679 0.292969ZM5.44311 0.350183L4.2187 3.45127H4.59632L4.92817 2.58159H6.35856L6.69041 3.45127H7.07948L5.85507 0.350183H5.44311ZM5.05405 2.28407L5.64909 0.727806H5.67198L6.25557 2.28407H5.05405ZM8.50986 0.350183V3.45127H8.8646V2.11242H9.80293C9.99747 2.11242 10.1462 2.14675 10.2492 2.22685C10.3636 2.30696 10.4323 2.44427 10.4438 2.62736L10.4781 3.03931C10.4895 3.21096 10.5353 3.34828 10.604 3.45127H10.993C10.9015 3.33684 10.8443 3.18808 10.8328 2.99354L10.787 2.51293C10.7527 2.20397 10.5925 2.00943 10.295 1.95222V1.94078C10.4781 1.895 10.6154 1.8149 10.7184 1.66614C10.8099 1.52882 10.8671 1.38006 10.8671 1.20842C10.8671 0.922339 10.7756 0.70492 10.5925 0.55616C10.4094 0.407399 10.1691 0.33874 9.86015 0.33874H8.50986V0.350183ZM8.87604 0.659148H9.81438C10.0547 0.659148 10.2263 0.704919 10.3408 0.807907C10.4438 0.899452 10.501 1.04821 10.501 1.2313C10.501 1.41439 10.4438 1.55171 10.3408 1.6547C10.2149 1.75769 10.0432 1.8149 9.81438 1.8149H8.87604V0.659148ZM12.3319 0.350183V0.659148H13.4304V3.45127H13.7851V0.659148H14.8837V0.350183H12.3319ZM17.424 0.292969C17.1151 0.292969 16.8519 0.395957 16.6574 0.601933C16.4628 0.807909 16.3713 1.08254 16.3713 1.43728H16.726C16.726 1.16264 16.7947 0.956668 16.9205 0.819351C17.035 0.67059 17.1952 0.601933 17.4126 0.601933C17.6186 0.601933 17.7788 0.659148 17.8818 0.762136C17.9962 0.865124 18.0534 1.01388 18.0534 1.19697C18.0534 1.40295 17.9733 1.58604 17.8131 1.75768C17.733 1.84923 17.5728 1.9751 17.3211 2.14675C16.9892 2.37561 16.7718 2.5587 16.6459 2.69602C16.4399 2.92488 16.3369 3.18808 16.3369 3.46271H18.4081V3.1423H16.7832C16.8404 2.93633 17.0693 2.69602 17.4584 2.43283C17.7788 2.21541 17.9962 2.04376 18.0992 1.92933C18.2937 1.71191 18.4081 1.47161 18.4081 1.19697C18.4081 0.922338 18.3166 0.70492 18.1335 0.544716C17.9504 0.37307 17.7101 0.292969 17.424 0.292969ZM21.4749 0.350183L19.9072 2.40994V2.75324H21.4635V3.46271H21.8068V2.75324H22.3102V2.46716H21.8068V0.361627H21.4749V0.350183ZM21.4635 0.819351H21.4749V2.46716H20.2162L21.4635 0.819351ZM24.1068 1.95222C24.0267 1.95222 23.9695 1.97511 23.9237 2.03232C23.8665 2.08954 23.8436 2.14675 23.8436 2.22685C23.8436 2.30696 23.8665 2.36417 23.9237 2.40994C23.9695 2.46716 24.0382 2.49005 24.1068 2.49005C24.1755 2.49005 24.2441 2.46716 24.2899 2.40994C24.3471 2.35273 24.37 2.29551 24.37 2.22685C24.37 2.14675 24.3471 2.08954 24.2899 2.03232C24.2441 1.98655 24.1755 1.95222 24.1068 1.95222ZM27.4596 0.292969C26.979 0.292969 26.6129 0.453173 26.3497 0.785023C26.1094 1.08254 25.9949 1.46017 25.9949 1.91789C25.9949 2.37561 26.1094 2.75324 26.3382 3.03931C26.59 3.35972 26.9676 3.51992 27.4482 3.51992C27.7801 3.51992 28.0661 3.42838 28.3064 3.23385C28.5582 3.03931 28.7184 2.75324 28.7985 2.38706H28.4552C28.398 2.66169 28.2721 2.85622 28.089 3.00498C27.9174 3.13086 27.7114 3.19952 27.4596 3.19952C27.0935 3.19952 26.8188 3.07364 26.6243 2.83334C26.4412 2.60448 26.3497 2.29551 26.3497 1.90645C26.3497 1.51738 26.4412 1.20842 26.6243 0.979556C26.8188 0.727807 27.0935 0.601933 27.4596 0.601933C27.6999 0.601933 27.9059 0.659148 28.0776 0.773579C28.2492 0.899453 28.3637 1.0711 28.4094 1.29996H28.7527C28.7069 0.990997 28.5696 0.739249 28.3293 0.55616C28.089 0.384513 27.8029 0.292969 27.4596 0.292969ZM31.7623 0.292969C31.2931 0.292969 30.9269 0.453172 30.6637 0.762136C30.412 1.05966 30.2861 1.43728 30.2861 1.90645C30.2861 2.37561 30.412 2.75324 30.6637 3.05076C30.9383 3.35972 31.2931 3.51992 31.7623 3.51992C32.2314 3.51992 32.5976 3.35972 32.8722 3.05076C33.124 2.75324 33.2499 2.37561 33.2499 1.90645C33.2499 1.43728 33.124 1.04821 32.8722 0.750693C32.5976 0.441729 32.22 0.292969 31.7623 0.292969ZM31.7623 0.613374C32.117 0.613374 32.3916 0.727807 32.5976 0.968112C32.7921 1.20842 32.8837 1.51738 32.8837 1.90645C32.8837 2.29551 32.7807 2.60448 32.5976 2.84478C32.3916 3.08509 32.117 3.19952 31.7623 3.19952C31.4075 3.19952 31.1214 3.07364 30.9269 2.83334C30.7324 2.59303 30.6408 2.29551 30.6408 1.90645C30.6408 1.51738 30.7324 1.20842 30.9269 0.979556C31.1214 0.727807 31.4075 0.613374 31.7623 0.613374ZM34.8633 0.350183V3.45127H35.2181V0.979556H35.2295L36.3052 3.45127H36.6256L37.7012 0.979556H37.7127V3.45127H38.0674V0.350183H37.6211L36.4654 2.99354H36.4539L35.2982 0.350183H34.8633Z" fill="white"/>
</g>
</svg>
