<svg width="159" height="37" viewBox="0 0 159 37" fill="none" xmlns="http://www.w3.org/2000/svg">
<g id="Group 17">
<g id="Google Play logo" filter="url(#filter0_ii_8060_15686)">
<path id="Vector" d="M0.977549 1.05628C0.571835 1.48737 0.332031 2.1564 0.332031 3.02278V33.9773C0.332031 34.8451 0.571835 35.5127 0.977549 35.9438L1.08072 36.0446L18.3535 18.7044V18.5001V18.2957L1.08072 0.954102L0.977549 1.05628Z" fill="url(#paint0_linear_8060_15686)"/>
<path id="Vector_2" d="M24.1102 24.4858L18.3535 18.7039V18.4995V18.2952L24.1116 12.5146L24.2412 12.5888L31.0631 16.4798C33.0108 17.5912 33.0108 19.4093 31.0631 20.522L24.2412 24.413L24.1102 24.4858Z" fill="url(#paint1_linear_8060_15686)"/>
<g id="Vector_3" filter="url(#filter1_i_8060_15686)">
<path d="M24.2412 24.4111L18.3521 18.499L0.97754 35.9428C1.61887 36.6258 2.67986 36.7098 3.87469 36.0296L24.2412 24.4111Z" fill="url(#paint2_linear_8060_15686)"/>
</g>
<path id="Vector_4" d="M24.2412 12.5874L3.87469 0.970386C2.67986 0.288759 1.61887 0.374138 0.97754 1.05716L18.3535 18.5009L24.2412 12.5874Z" fill="url(#paint3_linear_8060_15686)"/>
</g>
<g id="text">
<g id="Get it on">
<path id="path42" d="M54.8777 4.96918C54.8777 6.07785 54.5514 6.96028 53.8976 7.61913C53.1543 8.40234 52.1873 8.79395 50.9981 8.79395C49.8575 8.79395 48.8892 8.39705 48.0933 7.60193C47.2948 6.80814 46.8975 5.82251 46.8975 4.64769C46.8975 3.47156 47.2948 2.48725 48.0933 1.69214C48.8892 0.898341 49.8575 0.500121 50.9981 0.500121C51.5625 0.500121 52.1045 0.611252 52.6175 0.833515C53.1319 1.05578 53.5437 1.3508 53.8529 1.71992L53.1582 2.41846C52.636 1.79136 51.9163 1.47649 50.9981 1.47649C50.1666 1.47649 49.4483 1.77019 48.8419 2.3576C48.2354 2.94633 47.9328 3.70837 47.9328 4.64769C47.9328 5.58569 48.2354 6.34906 48.8419 6.93647C49.4483 7.5252 50.1666 7.81758 50.9981 7.81758C51.8795 7.81758 52.6136 7.52255 53.203 6.93118C53.5845 6.54619 53.8042 6.0117 53.8634 5.32374H50.9981V4.36987H54.8224C54.8593 4.57758 54.8777 4.77735 54.8777 4.96918Z" fill="#2A2A2A"/>
<path id="path46" d="M54.8777 4.96918C54.8777 6.07785 54.5514 6.96028 53.8976 7.61913C53.1543 8.40234 52.1873 8.79395 50.9981 8.79395C49.8575 8.79395 48.8892 8.39705 48.0933 7.60193C47.2948 6.80814 46.8975 5.82251 46.8975 4.64769C46.8975 3.47156 47.2948 2.48725 48.0933 1.69214C48.8892 0.898341 49.8575 0.500121 50.9981 0.500121C51.5625 0.500121 52.1045 0.611252 52.6175 0.833515C53.1319 1.05578 53.5437 1.3508 53.8529 1.71992L53.1582 2.41846C52.636 1.79136 51.9163 1.47649 50.9981 1.47649C50.1666 1.47649 49.4483 1.77019 48.8419 2.3576C48.2354 2.94633 47.9328 3.70837 47.9328 4.64769C47.9328 5.58569 48.2354 6.34906 48.8419 6.93647C49.4483 7.5252 50.1666 7.81758 50.9981 7.81758C51.8795 7.81758 52.6136 7.52255 53.203 6.93118C53.5845 6.54619 53.8042 6.0117 53.8634 5.32374H50.9981V4.36987H54.8224C54.8593 4.57758 54.8777 4.77735 54.8777 4.96918Z" fill="#2A2A2A"/>
<path id="path50" d="M60.9414 1.65429H57.3473V4.17062H60.5889V5.12449H57.3473V7.64082H60.9414V8.61719H56.333V0.679248H60.9414V1.65429Z" fill="#2A2A2A"/>
<path id="path54" d="M60.9414 1.65429H57.3473V4.17062H60.5889V5.12449H57.3473V7.64082H60.9414V8.61719H56.333V0.679248H60.9414V1.65429Z" fill="#2A2A2A"/>
<path id="path58" d="M65.2182 8.61621H64.2039V1.65332H61.999V0.678271H67.4231V1.65332H65.2182V8.61621Z" fill="#2A2A2A"/>
<path id="path62" d="M65.2182 8.61621H64.2039V1.65332H61.999V0.678271H67.4231V1.65332H65.2182V8.61621Z" fill="#2A2A2A"/>
<path id="path64" d="M71.3477 0.678271H72.362V8.61621H71.3477V0.678271Z" fill="#2A2A2A"/>
<path id="path68" d="M76.8608 8.61621H75.8465V1.65332H73.6416V0.678271H79.0657V1.65332H76.8608V8.61621Z" fill="#2A2A2A"/>
<path id="path72" d="M76.8608 8.61621H75.8465V1.65332H73.6416V0.678271H79.0657V1.65332H76.8608V8.61621Z" fill="#2A2A2A"/>
<path id="path76" d="M84.2943 6.92588C84.8784 7.52123 85.5928 7.81758 86.4387 7.81758C87.2846 7.81758 87.999 7.52123 88.5831 6.92588C89.1672 6.33054 89.4606 5.57114 89.4606 4.6477C89.4606 3.72425 89.1672 2.96353 88.5831 2.36951C87.999 1.77416 87.2846 1.47649 86.4387 1.47649C85.5928 1.47649 84.8784 1.77416 84.2943 2.36951C83.7115 2.96353 83.4182 3.72425 83.4182 4.6477C83.4182 5.57114 83.7115 6.33054 84.2943 6.92588ZM89.3329 7.59002C88.5568 8.39308 87.5925 8.79395 86.4387 8.79395C85.2849 8.79395 84.3206 8.39308 83.5458 7.59002C82.7696 6.78829 82.3828 5.80796 82.3828 4.6477C82.3828 3.48743 82.7696 2.50577 83.5458 1.70404C84.3206 0.90231 85.2849 0.500121 86.4387 0.500121C87.5859 0.500121 88.5476 0.903633 89.3277 1.70933C90.1065 2.51504 90.4959 3.49405 90.4959 4.6477C90.4959 5.80796 90.1078 6.78829 89.3329 7.59002Z" fill="#2A2A2A"/>
<path id="path80" d="M84.2943 6.92588C84.8784 7.52123 85.5928 7.81758 86.4387 7.81758C87.2846 7.81758 87.999 7.52123 88.5831 6.92588C89.1672 6.33054 89.4606 5.57114 89.4606 4.6477C89.4606 3.72425 89.1672 2.96353 88.5831 2.36951C87.999 1.77416 87.2846 1.47649 86.4387 1.47649C85.5928 1.47649 84.8784 1.77416 84.2943 2.36951C83.7115 2.96353 83.4182 3.72425 83.4182 4.6477C83.4182 5.57114 83.7115 6.33054 84.2943 6.92588ZM89.3329 7.59002C88.5568 8.39308 87.5925 8.79395 86.4387 8.79395C85.2849 8.79395 84.3206 8.39308 83.5458 7.59002C82.7696 6.78829 82.3828 5.80796 82.3828 4.6477C82.3828 3.48743 82.7696 2.50577 83.5458 1.70404C84.3206 0.90231 85.2849 0.500121 86.4387 0.500121C87.5859 0.500121 88.5476 0.903633 89.3277 1.70933C90.1065 2.51504 90.4959 3.49405 90.4959 4.6477C90.4959 5.80796 90.1078 6.78829 89.3329 7.59002Z" fill="#2A2A2A"/>
<path id="path84" d="M91.9199 8.61621V0.678271H93.1539L96.9901 6.85267H97.0348L96.9901 5.32329V0.678271H98.0057V8.61621H96.9467L92.9329 2.1415H92.8895L92.9329 3.6722V8.61621H91.9199Z" fill="#2A2A2A"/>
<path id="path88" d="M91.9199 8.61621V0.678271H93.1539L96.9901 6.85267H97.0348L96.9901 5.32329V0.678271H98.0057V8.61621H96.9467L92.9329 2.1415H92.8895L92.9329 3.6722V8.61621H91.9199Z" fill="#2A2A2A"/>
</g>
<path id="Google Play" d="M133.177 31.1075H135.632V14.5688H133.177V31.1075ZM155.288 20.5262L152.474 27.6968H152.39L149.469 20.5262H146.825L151.204 30.5479L148.709 36.1229H151.267L158.018 20.5262H155.288ZM141.367 29.2288C140.561 29.2288 139.441 28.8253 139.441 27.8238C139.441 26.5485 140.836 26.059 142.043 26.059C143.121 26.059 143.631 26.2931 144.286 26.612C144.095 28.144 142.783 29.2288 141.367 29.2288ZM141.663 20.165C139.885 20.165 138.043 20.9522 137.283 22.6972L139.462 23.6114C139.927 22.6972 140.794 22.3982 141.705 22.3982C142.974 22.3982 144.265 23.1643 144.286 24.5269V24.6963C143.841 24.4409 142.89 24.0586 141.726 24.0586C139.377 24.0586 136.986 25.3565 136.986 27.7815C136.986 29.9949 138.912 31.421 141.069 31.421C142.72 31.421 143.631 30.6762 144.202 29.803H144.286V31.0797H146.655V24.7386C146.655 21.8029 144.477 20.165 141.663 20.165ZM126.491 22.5398H123V16.8708H126.491C128.327 16.8708 129.369 18.3989 129.369 19.7046C129.369 20.9866 128.327 22.5398 126.491 22.5398ZM126.428 14.5688H120.546V31.1075H123V24.8418H126.428C129.149 24.8418 131.823 22.86 131.823 19.7046C131.823 16.5493 129.149 14.5688 126.428 14.5688ZM94.3535 29.2315C92.6577 29.2315 91.2382 27.804 91.2382 25.8433C91.2382 23.8615 92.6577 22.4115 94.3535 22.4115C96.0282 22.4115 97.3411 23.8615 97.3411 25.8433C97.3411 27.804 96.0282 29.2315 94.3535 29.2315ZM97.1727 21.4523H97.0872C96.536 20.7921 95.477 20.1955 94.1417 20.1955C91.3435 20.1955 88.7794 22.6668 88.7794 25.8433C88.7794 28.9973 91.3435 31.4488 94.1417 31.4488C95.477 31.4488 96.536 30.8522 97.0872 30.1695H97.1727V30.9805C97.1727 33.133 96.0282 34.284 94.1838 34.284C92.6787 34.284 91.746 33.1965 91.3645 32.2797L89.2241 33.1753C89.8384 34.6677 91.4711 36.5 94.1838 36.5C97.0662 36.5 99.5039 34.7947 99.5039 30.6392V20.5355H97.1727V21.4523ZM101.2 31.1075H103.658V14.5675H101.2V31.1075ZM107.282 25.6515C107.218 23.4778 108.956 22.3691 110.206 22.3691C111.182 22.3691 112.008 22.8587 112.283 23.5625L107.282 25.6515ZM114.912 23.7755C114.446 22.5186 113.025 20.1955 110.122 20.1955C107.239 20.1955 104.845 22.475 104.845 25.8221C104.845 28.9762 107.218 31.4488 110.397 31.4488C112.962 31.4488 114.446 29.8718 115.06 28.955L113.153 27.6757C112.517 28.6137 111.648 29.2315 110.397 29.2315C109.147 29.2315 108.256 28.656 107.684 27.5275L115.166 24.4145L114.912 23.7755ZM55.3062 21.922V24.3086H60.9855C60.8158 25.6515 60.3711 26.6318 59.6936 27.3132C58.8661 28.1453 57.5729 29.0622 55.3062 29.0622C51.8081 29.0622 49.0743 26.227 49.0743 22.7105C49.0743 19.1926 51.8081 16.3588 55.3062 16.3588C57.1927 16.3588 58.5701 17.105 59.587 18.0641L61.2617 16.38C59.8409 15.016 57.9557 13.9708 55.3062 13.9708C50.5162 13.9708 46.4893 17.8935 46.4893 22.7105C46.4893 27.5275 50.5162 31.4488 55.3062 31.4488C57.8913 31.4488 59.8409 30.5955 61.367 28.9973C62.9365 27.4203 63.4232 25.2043 63.4232 23.413C63.4232 22.8587 63.3811 22.348 63.2956 21.922H55.3062ZM69.8813 29.2315C68.1856 29.2315 66.7226 27.8252 66.7226 25.8221C66.7226 23.7966 68.1856 22.4115 69.8813 22.4115C71.5758 22.4115 73.0387 23.7966 73.0387 25.8221C73.0387 27.8252 71.5758 29.2315 69.8813 29.2315ZM69.8813 20.1955C66.7858 20.1955 64.2639 22.561 64.2639 25.8221C64.2639 29.0621 66.7858 31.4488 69.8813 31.4488C72.9755 31.4488 75.4975 29.0621 75.4975 25.8221C75.4975 22.561 72.9755 20.1955 69.8813 20.1955ZM82.1332 29.2315C80.4374 29.2315 78.9745 27.8252 78.9745 25.8221C78.9745 23.7966 80.4374 22.4115 82.1332 22.4115C83.8289 22.4115 85.2905 23.7966 85.2905 25.8221C85.2905 27.8252 83.8289 29.2315 82.1332 29.2315ZM82.1332 20.1955C79.039 20.1955 76.517 22.561 76.517 25.8221C76.517 29.0621 79.039 31.4488 82.1332 31.4488C85.2274 31.4488 87.7493 29.0621 87.7493 25.8221C87.7493 22.561 85.2274 20.1955 82.1332 20.1955Z" fill="#2A2A2A"/>
</g>
</g>
<defs>
<filter id="filter0_ii_8060_15686" x="0.332031" y="0.5" width="32.1914" height="35.999" filterUnits="userSpaceOnUse" color-interpolation-filters="sRGB">
<feFlood flood-opacity="0" result="BackgroundImageFix"/>
<feBlend mode="normal" in="SourceGraphic" in2="BackgroundImageFix" result="shape"/>
<feColorMatrix in="SourceAlpha" type="matrix" values="0 0 0 0 0 0 0 0 0 0 0 0 0 0 0 0 0 0 127 0" result="hardAlpha"/>
<feOffset dy="-0.795"/>
<feComposite in2="hardAlpha" operator="arithmetic" k2="-1" k3="1"/>
<feColorMatrix type="matrix" values="0 0 0 0 0 0 0 0 0 0 0 0 0 0 0 0 0 0 0.12 0"/>
<feBlend mode="normal" in2="shape" result="effect1_innerShadow_8060_15686"/>
<feColorMatrix in="SourceAlpha" type="matrix" values="0 0 0 0 0 0 0 0 0 0 0 0 0 0 0 0 0 0 127 0" result="hardAlpha"/>
<feOffset dy="0.795"/>
<feComposite in2="hardAlpha" operator="arithmetic" k2="-1" k3="1"/>
<feColorMatrix type="matrix" values="0 0 0 0 1 0 0 0 0 1 0 0 0 0 1 0 0 0 0.25 0"/>
<feBlend mode="normal" in2="effect1_innerShadow_8060_15686" result="effect2_innerShadow_8060_15686"/>
</filter>
<filter id="filter1_i_8060_15686" x="0.977539" y="18.499" width="23.2637" height="18" filterUnits="userSpaceOnUse" color-interpolation-filters="sRGB">
<feFlood flood-opacity="0" result="BackgroundImageFix"/>
<feBlend mode="normal" in="SourceGraphic" in2="BackgroundImageFix" result="shape"/>
<feColorMatrix in="SourceAlpha" type="matrix" values="0 0 0 0 0 0 0 0 0 0 0 0 0 0 0 0 0 0 127 0" result="hardAlpha"/>
<feOffset dy="-0.795"/>
<feComposite in2="hardAlpha" operator="arithmetic" k2="-1" k3="1"/>
<feColorMatrix type="matrix" values="0 0 0 0 0 0 0 0 0 0 0 0 0 0 0 0 0 0 0.08 0"/>
<feBlend mode="normal" in2="shape" result="effect1_innerShadow_8060_15686"/>
</filter>
<linearGradient id="paint0_linear_8060_15686" x1="16.8224" y1="2.69526" x2="-6.66628" y2="26.0926" gradientUnits="userSpaceOnUse">
<stop stop-color="#00A0FF"/>
<stop offset="0.0066" stop-color="#00A1FF"/>
<stop offset="0.2601" stop-color="#00BEFF"/>
<stop offset="0.5122" stop-color="#00D2FF"/>
<stop offset="0.7604" stop-color="#00DFFF"/>
<stop offset="1" stop-color="#00E3FF"/>
</linearGradient>
<linearGradient id="paint1_linear_8060_15686" x1="33.5984" y1="18.4995" x2="-0.135573" y2="18.4995" gradientUnits="userSpaceOnUse">
<stop stop-color="#FFE000"/>
<stop offset="0.4087" stop-color="#FFBD00"/>
<stop offset="0.7754" stop-color="#FFA500"/>
<stop offset="1" stop-color="#FF9C00"/>
</linearGradient>
<linearGradient id="paint2_linear_8060_15686" x1="21.0431" y1="21.7097" x2="-10.8105" y2="53.4394" gradientUnits="userSpaceOnUse">
<stop stop-color="#FF3A44"/>
<stop offset="1" stop-color="#C31162"/>
</linearGradient>
<linearGradient id="paint3_linear_8060_15686" x1="-3.39831" y1="-9.2473" x2="10.8252" y2="4.9209" gradientUnits="userSpaceOnUse">
<stop stop-color="#32A071"/>
<stop offset="0.0685" stop-color="#2DA771"/>
<stop offset="0.4762" stop-color="#15CF74"/>
<stop offset="0.8009" stop-color="#06E775"/>
<stop offset="1" stop-color="#00F076"/>
</linearGradient>
</defs>
</svg>
