<svg width="18" height="17" viewBox="0 0 18 17" fill="none" xmlns="http://www.w3.org/2000/svg">
<g id="Group">
<path id="Vector" d="M16.304 0.783433L17.7463 6.45762C17.7787 6.5961 17.7481 6.74479 17.6422 6.86943C15.2169 9.72511 12.6883 12.9744 10.1431 15.7018C9.865 16.0079 9.47141 16.1959 9.05159 16.2491C8.64488 16.3009 8.21456 16.2258 7.84547 16.0145C5.74197 14.7929 3.69358 13.4678 1.59883 12.2317C1.21924 12.0021 0.995335 11.6697 0.93411 11.3177C0.874635 10.9744 0.969972 10.6114 1.22274 10.3053C3.61749 7.4015 6.24926 4.50573 8.73322 1.63985C8.77933 1.57885 8.84001 1.5264 8.91148 1.48578C8.98295 1.44515 9.06369 1.41721 9.14867 1.40369L15.5685 0.376728C15.9043 0.322792 16.2332 0.502821 16.304 0.783433Z" fill="#2A2A2A"/>
<path id="Vector_2" d="M17.1275 6.56749L16.5879 4.44068C15.9966 4.40059 15.3564 4.30365 14.6663 4.13966C14.648 4.16735 14.6278 4.19432 14.606 4.22129C14.4258 4.44724 14.1722 4.58863 13.8468 4.64767C13.5302 4.69723 13.2354 4.64403 12.9643 4.49024C12.6949 4.33426 12.5287 4.12435 12.4701 3.8605C12.4019 3.59738 12.4605 3.35103 12.6442 3.12144C12.8279 2.8933 13.0797 2.75336 13.3981 2.7038C13.7235 2.65278 14.0226 2.70307 14.2937 2.85832C14.5395 2.99972 14.6996 3.18631 14.7704 3.41954C14.7923 3.42173 14.8133 3.42537 14.8334 3.43047C15.3949 3.5675 15.9171 3.65569 16.4007 3.70234L15.687 0.892578L9.26722 1.92027L1.75499 10.5842C1.41301 10.9793 1.49522 11.5296 1.98152 11.8138L8.1713 15.5631C8.64885 15.8568 9.29695 15.773 9.64681 15.3743L17.1275 6.56749ZM6.79725 7.96545L8.32436 8.9188L10.0605 8.24752C10.1322 8.21909 10.2188 8.24169 10.2582 8.29927C10.2809 8.33134 10.2844 8.36997 10.2704 8.40495L9.64943 9.9137L10.95 11.0813C10.957 11.0886 10.964 11.0959 10.9701 11.1039C11.0051 11.1557 10.9937 11.2213 10.9413 11.2614C10.9258 11.2728 10.9079 11.2816 10.8883 11.2872C10.8688 11.2929 10.8482 11.2952 10.8276 11.2942L8.92174 11.2716L7.99025 12.6637C7.97801 12.6841 7.95701 12.7009 7.9334 12.7133C7.88704 12.7351 7.83019 12.7358 7.78296 12.714C7.75935 12.7023 7.73923 12.6863 7.72524 12.6666C7.71911 12.6579 7.71474 12.6484 7.71124 12.6389L7.14798 11.1163L5.27189 10.8095C5.22903 10.8022 5.19055 10.7796 5.16868 10.7482C5.15119 10.7213 5.14419 10.6899 5.15119 10.66C5.16081 10.6272 5.18618 10.5981 5.22116 10.5799L6.78063 9.66588L6.55148 8.08352C6.54851 8.05868 6.5542 8.03366 6.56788 8.01145C6.58156 7.98924 6.60264 7.97079 6.62859 7.95833C6.65455 7.94586 6.68427 7.9399 6.71418 7.94116C6.7441 7.94243 6.77294 7.95086 6.79725 7.96545Z" fill="#FFDD55"/>
<path id="Vector_3" d="M4.52408 8.85938L4.07889 8.9308L2.47132 10.7858C2.28327 11.0022 2.29551 11.2916 2.49843 11.4847C2.47569 11.3309 2.52292 11.1691 2.64099 11.0328L4.52408 8.85938Z" fill="white"/>
</g>
</svg>
