<svg width="18" height="18" viewBox="0 0 18 18" fill="none" xmlns="http://www.w3.org/2000/svg">
<g id="web">
<path id="Vector" d="M0.450195 9.00039C0.450195 4.53382 4.08362 0.900391 8.5502 0.900391C13.0168 0.900391 16.6502 4.53382 16.6502 9.00039C16.6502 13.467 13.0168 17.1004 8.5502 17.1004C4.08362 17.1004 0.450195 13.467 0.450195 9.00039ZM1.63118 8.42182H3.93942C4.00151 7.41487 4.22499 6.44039 4.59271 5.52896H2.53821C2.03755 6.39312 1.71785 7.37478 1.63118 8.42182ZM5.09919 8.42182H7.97162V5.52896H5.85729C5.43152 6.42696 5.17105 7.40521 5.09919 8.42182ZM7.97162 9.57896H5.09919C5.17105 10.5956 5.43152 11.5738 5.85729 12.4718H7.97162V9.57896ZM7.97162 13.629H6.52867C6.93396 14.2107 7.41776 14.7422 7.97162 15.2085V13.629ZM10.289 15.7231C11.6342 15.3753 12.8221 14.6337 13.7222 13.629H11.9433C11.4995 14.3975 10.9439 15.1032 10.289 15.7231ZM12.5076 12.4718H14.5616V12.4729C15.0626 11.6085 15.3825 10.6265 15.4692 9.57896H13.1609C13.0989 10.586 12.8754 11.5606 12.5076 12.4718ZM12.0012 9.57896H9.12877V12.4718H11.2431C11.6689 11.5738 11.9293 10.5956 12.0012 9.57896ZM13.1609 8.42182H15.4692C15.3825 7.37432 15.0626 6.39231 14.5616 5.52788V5.52896H12.5077C12.8754 6.44039 13.0989 7.41487 13.1609 8.42182ZM11.2431 5.52896H9.12877V8.42182H12.0012C11.9293 7.40521 11.6689 6.42696 11.2431 5.52896ZM11.9438 4.37182H13.7222C12.8231 3.36818 11.6368 2.62708 10.2934 2.27883C10.9465 2.89902 11.5009 3.60422 11.9438 4.37182ZM9.12877 2.79234V4.37182H10.5717C10.1664 3.79009 9.68263 3.25856 9.12877 2.79234ZM7.97162 2.79232C7.41776 3.25855 6.93396 3.79009 6.52867 4.37182H7.97162V2.79232ZM9.12877 13.629V15.2085C9.68263 14.7422 10.1664 14.2107 10.5717 13.629H9.12877ZM2.53821 12.4718H4.59448C4.22583 11.5602 4.00176 10.5856 3.93948 9.57896H1.63118C1.71785 10.626 2.03755 11.6077 2.53821 12.4718ZM6.81529 15.7241C6.16 15.1035 5.60382 14.3974 5.15954 13.629H3.37823C4.27911 14.6346 5.46849 15.3767 6.81529 15.7241ZM5.15658 4.37182C5.59948 3.60422 6.15381 2.89903 6.80696 2.27884C5.46357 2.6271 4.27725 3.36819 3.37823 4.37182H5.15658Z" fill="#83CBFF"/>
</g>
</svg>
