<svg width="101" height="42" viewBox="0 0 101 42" fill="none" xmlns="http://www.w3.org/2000/svg">
<g id="Layer_1">
<path id="Vector" d="M75.0803 8.77822V18.9907H76.0896C76.0896 15.7105 76.7935 13.3865 78.1879 12.0186C79.5823 10.6507 81.9064 9.97344 85.1866 9.97344L85.2131 40.571L83.0352 40.7437C83.0219 40.7437 83.0219 40.7437 83.0219 40.7437C80.3127 40.6242 79.6753 39.6813 77.9887 37.7955C76.3021 35.9097 75.4787 33.2404 75.4787 33.2404L73.4602 25.8035C73.2078 24.8473 72.9953 24.1036 72.8094 23.5591C72.6235 23.0279 72.3446 22.3506 71.9462 21.5272C71.5478 20.7038 71.1096 20.0531 70.6447 19.5883C70.1799 19.1235 69.5425 18.672 68.7589 18.2603C67.9621 17.8353 67.0724 17.583 66.0896 17.4635L66.0498 17.3705V17.2776C68.3871 16.9455 70.2995 16.0691 71.8001 14.6215C73.3008 13.174 74.0445 11.421 74.0445 9.38911C74.071 4.24967 69.7948 0.0531208 61.2158 0.0531208H49.3831V0.969455L53.593 1.24834V33.2404L53.2742 33.2669H52.1321L40.4323 0H39.1706L27.909 32.1514L27.5106 33.2404C26.1029 36.826 22.7961 40.7171 16.5544 40.7171C9.94089 40.7171 6.60756 35.4183 6.60756 24.8074C6.60756 14.2098 9.92761 8.91102 16.5943 8.91102C19.8479 8.91102 22.4376 9.80079 24.3898 11.5671C26.342 13.3333 27.3645 15.7636 27.4309 18.8446H28.4402V8.32669H27.4309C27.0989 9.85392 26.5146 10.6374 25.6779 10.6374C22.5438 8.68526 19.3964 7.7158 16.2092 7.7158C14.0179 7.7158 12.0392 8.07437 10.2463 8.77822C8.45351 9.48207 7.00597 10.3984 5.86387 11.5405C4.73505 12.6693 3.76559 14.0106 2.98206 15.5511C2.19853 17.0784 1.66732 18.6189 1.3486 20.1726C1.04315 21.7264 0.883789 23.2802 0.883789 24.8606C0.883789 26.4675 1.02987 28.0478 1.30876 29.575C1.58764 31.1023 2.09229 32.6428 2.8227 34.17C3.55311 35.6972 4.46945 37.0518 5.59826 38.1939C6.72708 39.3493 8.21447 40.2656 10.0471 40.9695C11.0432 41.3413 12.079 41.6069 13.1813 41.7795H18.9316H80.9369H81.2158H94.9342V40.903L90.6979 40.571V9.97344C93.9781 9.97344 96.3287 10.6507 97.7497 11.992C99.1574 13.3333 99.8745 15.6706 99.8745 18.9907H100.884V8.77822H75.0803ZM37.4708 9.34927C38.8918 13.2005 40.4323 17.4635 42.0923 22.085H32.8625L37.4708 9.34927ZM28.8519 33.2404L32.4509 23.2802H42.5438L46.1693 33.2404H28.8519ZM59.0113 0.690571H60.4057C65.8506 0.690571 68.5863 5.0332 68.5863 9.37583C68.5863 11.5936 67.7629 13.3997 66.1295 14.7809C64.496 16.162 62.5704 16.8659 60.3791 16.8659H58.9847L59.0113 0.690571ZM59.3433 33.2404L59.0113 33.2138V18.1009C61.9728 18.1009 64.1242 18.7782 65.4389 20.1328C66.7536 21.4874 67.6833 23.3865 68.2145 25.7902L68.2012 25.8035L69.8479 33.2404H59.3433Z" fill="#2A2A2A" fill-opacity="0.9"/>
</g>
</svg>
