<svg width="20" height="20" viewBox="0 0 20 20" fill="none" xmlns="http://www.w3.org/2000/svg">
<g id="pinterest">
<path id="Vector" d="M10.2512 0.833252C5.19014 0.834016 2.5 4.05385 2.5 7.56474C2.5 9.19261 3.4162 11.2238 4.8832 11.8678C5.30168 12.0549 5.24629 11.8265 5.60631 10.4592C5.63478 10.3453 5.62016 10.2468 5.52785 10.1406C3.43082 7.73203 5.1186 2.78043 9.95192 2.78043C16.9469 2.78043 15.6399 12.3918 11.1689 12.3918C10.0165 12.3918 9.15803 11.4935 9.42959 10.382C9.75883 9.05816 10.4035 7.63501 10.4035 6.6809C10.4035 4.27615 6.7956 4.63289 6.7956 7.81911C6.7956 8.80378 7.14639 9.46837 7.14639 9.46837C7.14639 9.46837 5.98556 14.1251 5.77017 14.9952C5.40553 16.468 5.8194 18.8521 5.85556 19.0576C5.87787 19.1707 6.00556 19.2066 6.07711 19.1134C6.19173 18.9644 7.59488 16.9767 7.98797 15.5398C8.13106 15.0166 8.71801 12.8929 8.71801 12.8929C9.10495 13.5866 10.2204 14.1671 11.4089 14.1671C14.9445 14.1671 17.5 11.081 17.5 7.25154C17.4877 3.58024 14.3237 0.833252 10.2512 0.833252V0.833252Z" fill="#717171"/>
</g>
</svg>
